<?xml version="1.0" standalone="no"?>
<!DOCTYPE svg PUBLIC "-//W3C//DTD SVG 20010904//EN"
 "http://www.w3.org/TR/2001/REC-SVG-20010904/DTD/svg10.dtd">
<svg version="1.0" xmlns="http://www.w3.org/2000/svg"
 width="115.000000pt" height="122.000000pt" viewBox="0 0 115.000000 122.000000"
 preserveAspectRatio="xMidYMid meet">
<metadata>
Created by potrace 1.10, written by Peter Selinger 2001-2011
</metadata>
<g transform="translate(0.000000,122.000000) scale(0.100000,-0.100000)"
fill="#000000" stroke="none">
<path d="M550 1211 c0 -6 35 -28 78 -51 95 -49 199 -133 241 -193 99 -145 42
-309 -134 -383 -57 -24 -139 -42 -228 -50 -110 -10 -100 -28 12 -21 103 6 152
18 237 57 80 37 127 79 158 142 33 65 35 152 6 216 -23 50 -134 166 -198 206
-24 15 -41 30 -38 33 9 9 176 -47 235 -79 31 -17 71 -45 89 -62 42 -39 100
-133 108 -176 5 -24 9 -28 15 -18 21 37 -36 144 -113 213 -84 75 -209 129
-360 155 -34 6 -73 13 -85 15 -13 3 -23 1 -23 -4z"/>
<path d="M400 768 c-25 -23 -99 -92 -165 -152 -183 -168 -227 -214 -221 -225
4 -6 25 8 49 32 23 23 96 92 161 152 65 61 139 129 164 153 25 23 49 42 54 42
9 0 9 -1 -23 -133 -19 -80 -20 -111 -3 -94 9 9 63 217 64 245 0 34 -29 27 -80
-20z"/>
<path d="M1120 665 c0 -37 -60 -141 -111 -192 -31 -31 -80 -65 -132 -91 -85
-41 -197 -82 -228 -82 -10 0 -20 -4 -23 -9 -3 -5 -42 -14 -85 -22 -44 -7 -77
-17 -74 -22 7 -11 70 -2 187 29 161 41 301 110 378 186 64 62 117 177 97 209
-7 11 -9 9 -9 -6z"/>
<path d="M16 342 c-11 -18 21 -42 237 -176 285 -178 287 -179 287 -139 0 19
-83 193 -92 193 -15 0 -8 -35 12 -60 11 -14 20 -32 20 -40 0 -8 7 -28 15 -44
24 -45 18 -49 -28 -18 -23 16 -52 32 -63 36 -12 4 -29 15 -39 26 -10 11 -22
20 -27 20 -6 0 -28 13 -51 29 -23 16 -84 55 -135 86 -51 31 -101 66 -111 77
-11 11 -21 15 -25 10z"/>
</g>
</svg>
