<?xml version="1.0" standalone="no"?>
<!DOCTYPE svg PUBLIC "-//W3C//DTD SVG 20010904//EN"
 "http://www.w3.org/TR/2001/REC-SVG-20010904/DTD/svg10.dtd">
<svg version="1.0" xmlns="http://www.w3.org/2000/svg"
 width="126.000000pt" height="101.000000pt" viewBox="0 0 126.000000 101.000000"
 preserveAspectRatio="xMidYMid meet">

<g transform="translate(0.000000,101.000000) scale(0.100000,-0.100000)"
fill="#000000" stroke="none">
<path d="M505 996 c-17 -7 -36 -20 -44 -29 -17 -21 -67 -22 -75 -2 -4 12 -25
15 -99 15 -94 0 -117 -8 -117 -40 0 -8 -16 -24 -36 -35 -44 -24 -81 -67 -105
-123 -17 -39 -19 -72 -19 -310 0 -259 1 -268 24 -317 29 -63 68 -102 131 -131
50 -24 51 -24 460 -24 252 0 424 4 447 10 60 17 119 69 153 135 l30 59 0 270
c0 299 -1 307 -65 380 -18 20 -56 49 -84 63 -44 23 -67 27 -173 31 -68 3 -123
8 -123 12 0 5 -19 18 -43 29 -35 17 -62 21 -138 21 -55 -1 -107 -6 -124 -14z
m532 -137 c60 -16 117 -70 133 -128 8 -30 10 -121 8 -286 l-3 -242 -27 -40
c-16 -25 -44 -49 -71 -62 -44 -21 -52 -22 -460 -19 l-415 3 -39 31 c-71 57
-73 67 -73 358 0 248 1 260 22 298 23 40 66 73 116 88 44 13 755 12 809 -1z"/>
<path d="M230 828 c-66 -18 -110 -78 -110 -148 l0 -40 80 0 80 0 24 38 c32 50
91 105 146 136 l45 26 -115 -1 c-63 0 -131 -5 -150 -11z"/>
<path d="M780 836 c0 -3 18 -15 40 -26 56 -28 106 -75 136 -126 l26 -44 85 0
86 0 -7 46 c-8 58 -35 103 -78 129 -27 16 -57 20 -160 23 -71 3 -128 2 -128
-2z"/>
<path d="M536 804 c-103 -33 -190 -114 -227 -213 -31 -83 -25 -195 16 -274 61
-121 172 -187 313 -187 64 0 87 5 137 29 145 69 227 224 196 373 -24 120 -91
206 -197 255 -69 31 -171 39 -238 17z m207 -90 c59 -31 94 -63 123 -116 24
-45 28 -64 28 -128 0 -91 -22 -139 -88 -197 -130 -115 -333 -75 -410 79 -71
142 5 325 154 373 54 18 147 12 193 -11z"/>
<path d="M544 671 c-22 -10 -57 -37 -77 -61 -88 -103 -66 -242 52 -325 37 -26
51 -30 109 -30 73 1 109 15 156 62 111 110 73 298 -73 359 -46 19 -118 17
-167 -5z m188 -28 c44 -39 4 -83 -58 -63 -41 14 -61 44 -43 66 16 19 78 18
101 -3z m-104 -346 c21 -21 5 -40 -27 -32 -69 16 -105 45 -68 58 19 6 78 -10
95 -26z"/>
<path d="M1030 201 c-13 -25 -13 -27 6 -45 35 -36 87 0 64 44 -14 26 -56 26
-70 1z"/>
</g>
</svg>
