<?xml version="1.0" standalone="no"?>
<!DOCTYPE svg PUBLIC "-//W3C//DTD SVG 20010904//EN"
 "http://www.w3.org/TR/2001/REC-SVG-20010904/DTD/svg10.dtd">
<svg version="1.0" xmlns="http://www.w3.org/2000/svg"
 width="114.000000pt" height="98.000000pt" viewBox="0 0 114.000000 98.000000"
 preserveAspectRatio="xMidYMid meet">

<g transform="translate(0.000000,98.000000) scale(0.100000,-0.100000)"
fill="#000000" stroke="none">
<path d="M51 944 c-17 -14 -35 -42 -41 -62 -13 -49 -13 -735 0 -784 6 -20 24
-48 41 -62 l31 -26 488 0 488 0 31 26 c17 14 35 42 41 62 14 53 12 587 -3 632
-7 19 -27 44 -46 57 -33 23 -39 23 -322 23 l-289 0 -29 59 c-49 96 -60 101
-222 101 -133 0 -138 -1 -168 -26z m334 -134 l40 -75 304 -3 c204 -1 309 -6
318 -13 8 -8 13 -35 13 -80 l0 -69 -365 0 c-419 0 -423 -1 -454 -72 -11 -24
-45 -123 -77 -221 -32 -97 -63 -176 -69 -174 -14 5 -19 741 -5 768 10 18 20
19 133 17 l122 -3 40 -75z m675 -508 c0 -168 -2 -190 -17 -203 -15 -12 -90
-14 -440 -11 l-421 2 63 190 c35 104 66 194 70 199 4 8 128 11 376 11 l369 0
0 -188z"/>
</g>
</svg>
